<svg width="59" height="234" viewBox="0 0 59 234" fill="none" xmlns="http://www.w3.org/2000/svg">
<path d="M0 0H59V234H0V0Z" fill="#DEA530"/>
<path d="M20.5455 191.278V187.409L33.1932 182.227V182.023L20.5455 176.841V172.972H38V176.006H26.0085V176.168L37.9489 180.991V183.259L25.983 188.082V188.244H38V191.278H20.5455ZM38.2557 163.955C38.2557 165.233 37.9744 166.341 37.4119 167.278C36.8494 168.216 36.0625 168.943 35.0511 169.46C34.0398 169.972 32.858 170.227 31.5057 170.227C30.1534 170.227 28.9687 169.972 27.9517 169.46C26.9347 168.943 26.1449 168.216 25.5824 167.278C25.0199 166.341 24.7386 165.233 24.7386 163.955C24.7386 162.676 25.0199 161.568 25.5824 160.631C26.1449 159.693 26.9347 158.969 27.9517 158.457C28.9687 157.94 30.1534 157.682 31.5057 157.682C32.858 157.682 34.0398 157.94 35.0511 158.457C36.0625 158.969 36.8494 159.693 37.4119 160.631C37.9744 161.568 38.2557 162.676 38.2557 163.955ZM35.7841 163.938C35.7841 163.244 35.5937 162.665 35.2131 162.199C34.8267 161.733 34.3097 161.386 33.6619 161.159C33.0142 160.926 32.2926 160.81 31.4972 160.81C30.696 160.81 29.9716 160.926 29.3239 161.159C28.6705 161.386 28.1506 161.733 27.7642 162.199C27.3778 162.665 27.1847 163.244 27.1847 163.938C27.1847 164.648 27.3778 165.239 27.7642 165.71C28.1506 166.176 28.6705 166.526 29.3239 166.759C29.9716 166.986 30.696 167.099 31.4972 167.099C32.2926 167.099 33.0142 166.986 33.6619 166.759C34.3097 166.526 34.8267 166.176 35.2131 165.71C35.5937 165.239 35.7841 164.648 35.7841 163.938ZM30.3295 151.978H38V155.063H24.9091V152.114H27.1335V151.961C26.4006 151.66 25.8182 151.18 25.3864 150.521C24.9545 149.856 24.7386 149.035 24.7386 148.058C24.7386 147.154 24.9318 146.367 25.3182 145.697C25.7045 145.021 26.2642 144.498 26.9972 144.129C27.7301 143.754 28.6193 143.569 29.6648 143.575H38V146.66H30.142C29.267 146.66 28.5824 146.887 28.0881 147.342C27.5937 147.79 27.3466 148.413 27.3466 149.208C27.3466 149.748 27.4659 150.228 27.7045 150.648C27.9375 151.063 28.2756 151.39 28.7188 151.629C29.1619 151.862 29.6989 151.978 30.3295 151.978ZM26.4347 119.408V122.596C25.9119 122.687 25.4489 122.854 25.0455 123.099C24.6364 123.343 24.2898 123.647 24.0057 124.011C23.7216 124.374 23.5085 124.789 23.3665 125.255C23.2188 125.715 23.1449 126.212 23.1449 126.746C23.1449 127.695 23.3835 128.536 23.8608 129.269C24.3324 130.002 25.0256 130.576 25.9403 130.991C26.8494 131.406 27.9602 131.613 29.2727 131.613C30.608 131.613 31.733 131.406 32.6477 130.991C33.5568 130.57 34.2443 129.996 34.7102 129.269C35.1705 128.536 35.4006 127.698 35.4006 126.755C35.4006 126.232 35.3324 125.744 35.196 125.289C35.054 124.829 34.8466 124.417 34.5739 124.053C34.3011 123.684 33.9659 123.374 33.5682 123.124C33.1705 122.869 32.7159 122.692 32.2045 122.596L32.2216 119.408C33.0511 119.528 33.8295 119.786 34.5568 120.184C35.2841 120.576 35.9261 121.09 36.483 121.727C37.0341 122.363 37.4659 123.107 37.7784 123.96C38.0852 124.812 38.2386 125.758 38.2386 126.798C38.2386 128.332 37.8835 129.701 37.1733 130.906C36.4631 132.11 35.4375 133.059 34.0966 133.752C32.7557 134.445 31.1477 134.792 29.2727 134.792C27.392 134.792 25.7841 134.442 24.4489 133.744C23.108 133.045 22.0824 132.093 21.3722 130.888C20.6619 129.684 20.3068 128.32 20.3068 126.798C20.3068 125.826 20.4432 124.923 20.7159 124.087C20.9886 123.252 21.3892 122.508 21.9176 121.854C22.4403 121.201 23.0824 120.664 23.8438 120.244C24.5994 119.817 25.4631 119.539 26.4347 119.408ZM38.2557 110.939C38.2557 112.217 37.9744 113.325 37.4119 114.263C36.8494 115.2 36.0625 115.928 35.0511 116.445C34.0398 116.956 32.858 117.212 31.5057 117.212C30.1534 117.212 28.9687 116.956 27.9517 116.445C26.9347 115.928 26.1449 115.2 25.5824 114.263C25.0199 113.325 24.7386 112.217 24.7386 110.939C24.7386 109.661 25.0199 108.553 25.5824 107.615C26.1449 106.678 26.9347 105.953 27.9517 105.442C28.9687 104.925 30.1534 104.666 31.5057 104.666C32.858 104.666 34.0398 104.925 35.0511 105.442C36.0625 105.953 36.8494 106.678 37.4119 107.615C37.9744 108.553 38.2557 109.661 38.2557 110.939ZM35.7841 110.922C35.7841 110.229 35.5937 109.649 35.2131 109.183C34.8267 108.717 34.3097 108.371 33.6619 108.143C33.0142 107.911 32.2926 107.794 31.4972 107.794C30.696 107.794 29.9716 107.911 29.3239 108.143C28.6705 108.371 28.1506 108.717 27.7642 109.183C27.3778 109.649 27.1847 110.229 27.1847 110.922C27.1847 111.632 27.3778 112.223 27.7642 112.695C28.1506 113.161 28.6705 113.51 29.3239 113.743C29.9716 113.97 30.696 114.084 31.4972 114.084C32.2926 114.084 33.0142 113.97 33.6619 113.743C34.3097 113.51 34.8267 113.161 35.2131 112.695C35.5937 112.223 35.7841 111.632 35.7841 110.922ZM38 102.048H24.9091V99.0987H27.1335V98.9453C26.3835 98.6726 25.7983 98.2209 25.3778 97.5902C24.9517 96.9595 24.7386 96.2067 24.7386 95.3317C24.7386 94.4453 24.9545 93.6982 25.3864 93.0902C25.8125 92.4766 26.3949 92.0447 27.1335 91.7947V91.6584C26.4062 91.3686 25.8267 90.88 25.3949 90.1925C24.9574 89.4993 24.7386 88.6783 24.7386 87.7294C24.7386 86.5249 25.1193 85.5419 25.8807 84.7805C26.642 84.0192 27.7528 83.6385 29.2131 83.6385H38V86.7322H29.6903C28.8778 86.7322 28.2841 86.9482 27.9091 87.38C27.5284 87.8118 27.3381 88.3402 27.3381 88.9652C27.3381 89.7095 27.571 90.2919 28.0369 90.7124C28.4972 91.1271 29.0966 91.3345 29.8352 91.3345H38V94.3601H29.5625C28.8864 94.3601 28.3466 94.5646 27.9432 94.9737C27.5398 95.3771 27.3381 95.9055 27.3381 96.5589C27.3381 97.0021 27.4517 97.4055 27.679 97.7692C27.9006 98.1328 28.2159 98.4226 28.625 98.6385C29.0284 98.8544 29.5 98.9624 30.0398 98.9624H38V102.048ZM42.9091 80.5085H24.9091V77.4744H27.0739V77.2955C26.7557 77.1364 26.4176 76.9119 26.0597 76.6222C25.696 76.3324 25.3864 75.9403 25.1307 75.446C24.8693 74.9517 24.7386 74.321 24.7386 73.554C24.7386 72.5426 24.9972 71.6307 25.5142 70.8182C26.0256 70 26.7841 69.3523 27.7898 68.875C28.7898 68.392 30.017 68.1506 31.4716 68.1506C32.9091 68.1506 34.1307 68.3864 35.1364 68.858C36.142 69.3295 36.9091 69.9716 37.4375 70.7841C37.9659 71.5966 38.2301 72.517 38.2301 73.5455C38.2301 74.2955 38.1051 74.9176 37.8551 75.4119C37.6051 75.9062 37.304 76.304 36.9517 76.6051C36.5937 76.9006 36.2557 77.1307 35.9375 77.2955V77.4233H42.9091V80.5085ZM31.4545 77.483C32.3011 77.483 33.0426 77.3636 33.679 77.125C34.3153 76.8807 34.8125 76.5312 35.1705 76.0767C35.5227 75.6165 35.6989 75.0597 35.6989 74.4062C35.6989 73.7244 35.517 73.1534 35.1534 72.6932C34.7841 72.233 34.2812 71.8864 33.6449 71.6534C33.0028 71.4148 32.2727 71.2955 31.4545 71.2955C30.642 71.2955 29.9205 71.4119 29.2898 71.6449C28.6591 71.8778 28.1648 72.2244 27.8068 72.6847C27.4489 73.1449 27.2699 73.7188 27.2699 74.4062C27.2699 75.0653 27.4432 75.625 27.7898 76.0852C28.1364 76.5455 28.6222 76.8949 29.2472 77.1335C29.8722 77.3665 30.608 77.483 31.4545 77.483ZM24.9091 58.9716H27.2955L27.2955 66.4972H24.9091L24.9091 58.9716ZM21.7727 64.6392V61.554H34.0625C34.4773 61.554 34.7955 61.4915 35.017 61.3665C35.233 61.2358 35.3807 61.0653 35.4602 60.8551C35.5398 60.6449 35.5795 60.4119 35.5795 60.1562C35.5795 59.9631 35.5653 59.7869 35.5369 59.6278C35.5085 59.4631 35.483 59.3381 35.4602 59.2528L37.8722 58.733C37.929 58.8977 37.9915 59.1335 38.0597 59.4403C38.1278 59.7415 38.1676 60.1108 38.179 60.5483C38.2017 61.321 38.0852 62.017 37.8295 62.6364C37.5682 63.2557 37.1648 63.7472 36.6193 64.1108C36.0739 64.4687 35.392 64.6449 34.5739 64.6392H21.7727ZM38.2557 50.7365C38.2557 52.049 37.983 53.1825 37.4375 54.1371C36.8864 55.0859 36.108 55.8161 35.1023 56.3274C34.0909 56.8388 32.9006 57.0945 31.5313 57.0945C30.1847 57.0945 29.0028 56.8388 27.9858 56.3274C26.9631 55.8104 26.1676 55.0888 25.5994 54.1626C25.0256 53.2365 24.7386 52.1484 24.7386 50.8984C24.7386 50.0916 24.8693 49.3303 25.1307 48.6143C25.3864 47.8928 25.7841 47.2564 26.3239 46.7053C26.8636 46.1484 27.5511 45.7109 28.3864 45.3928C29.2159 45.0746 30.2045 44.9155 31.3523 44.9155H32.2983V55.6456H30.2188V47.8729C29.6278 47.8786 29.1023 48.0064 28.642 48.2564C28.1761 48.5064 27.8097 48.8558 27.5426 49.3047C27.2756 49.7479 27.142 50.2649 27.142 50.8558C27.142 51.4865 27.2955 52.0405 27.6023 52.5178C27.9034 52.995 28.3011 53.3672 28.7955 53.6342C29.2841 53.8956 29.821 54.0291 30.4063 54.0348H32.2216C32.983 54.0348 33.6364 53.8956 34.1818 53.6172C34.7216 53.3388 35.1364 52.9496 35.4261 52.4496C35.7102 51.9496 35.8523 51.3643 35.8523 50.6939C35.8523 50.245 35.7898 49.8388 35.6648 49.4751C35.5341 49.1115 35.3438 48.7962 35.0938 48.5291C34.8438 48.2621 34.5341 48.0604 34.1648 47.924L34.4886 45.0433C35.25 45.2251 35.9148 45.5717 36.483 46.0831C37.0455 46.5888 37.483 47.2365 37.7955 48.0263C38.1023 48.8161 38.2557 49.7195 38.2557 50.7365Z" fill="white"/>
</svg>
