<svg width="59" height="234" viewBox="0 0 59 234" fill="none" xmlns="http://www.w3.org/2000/svg">
<path d="M0 0H59V234H0V0Z" fill="#DEA530"/>
<path d="M21.4545 185.891V183.278H31.6818C32.6193 183.282 33.4266 183.481 34.1037 183.874C34.776 184.267 35.2945 184.816 35.6591 185.522C36.0189 186.223 36.1989 187.039 36.1989 187.972C36.1989 188.824 36.0474 189.591 35.7443 190.273C35.4366 190.95 34.982 191.488 34.3807 191.885C33.7794 192.283 33.0313 192.482 32.1364 192.482V189.861C32.5294 189.857 32.8679 189.771 33.152 189.606C33.4361 189.435 33.6539 189.201 33.8054 188.903C33.9569 188.604 34.0327 188.261 34.0327 187.873C34.0327 187.451 33.9451 187.094 33.7699 186.8C33.59 186.507 33.3248 186.284 32.9744 186.133C32.6241 185.976 32.1932 185.896 31.6818 185.891H21.4545Z" fill="white"/>
<path d="M36.2131 175.774C36.2131 176.839 35.9787 177.763 35.5099 178.544C35.0412 179.325 34.3854 179.931 33.5426 180.362C32.6998 180.788 31.715 181.001 30.5881 181.001C29.4612 181.001 28.474 180.788 27.6264 180.362C26.7789 179.931 26.1207 179.325 25.652 178.544C25.1832 177.763 24.9489 176.839 24.9489 175.774C24.9489 174.709 25.1832 173.785 25.652 173.004C26.1207 172.223 26.7789 171.619 27.6264 171.193C28.474 170.762 29.4612 170.547 30.5881 170.547C31.715 170.547 32.6998 170.762 33.5426 171.193C34.3854 171.619 35.0412 172.223 35.5099 173.004C35.9787 173.785 36.2131 174.709 36.2131 175.774ZM34.1534 175.76C34.1534 175.182 33.9948 174.699 33.6776 174.311C33.3556 173.923 32.9247 173.634 32.3849 173.444C31.8452 173.25 31.2438 173.153 30.581 173.153C29.9134 173.153 29.3097 173.25 28.7699 173.444C28.2254 173.634 27.7921 173.923 27.4702 174.311C27.1482 174.699 26.9872 175.182 26.9872 175.76C26.9872 176.352 27.1482 176.844 27.4702 177.237C27.7921 177.625 28.2254 177.916 28.7699 178.111C29.3097 178.3 29.9134 178.395 30.581 178.395C31.2438 178.395 31.8452 178.3 32.3849 178.111C32.9247 177.916 33.3556 177.625 33.6776 177.237C33.9948 176.844 34.1534 176.352 34.1534 175.76Z" fill="white"/>
<path d="M31.4119 161.411H25.0909V158.84H36V161.333H34.0611V161.447C34.6719 161.693 35.1714 162.098 35.5597 162.661C35.9479 163.22 36.142 163.909 36.142 164.728C36.142 165.443 35.9834 166.075 35.6662 166.624C35.3442 167.169 34.8778 167.595 34.267 167.903C33.6515 168.211 32.9081 168.365 32.0369 168.365H25.0909V165.794H31.6392C32.3305 165.794 32.8797 165.604 33.2869 165.225C33.6941 164.847 33.8977 164.349 33.8977 163.734C33.8977 163.355 33.8054 162.988 33.6207 162.633C33.4361 162.278 33.1615 161.987 32.7969 161.759C32.4276 161.527 31.9659 161.411 31.4119 161.411Z" fill="white"/>
<path d="M36 156.197H25.0909V153.704H26.9091V153.59C26.2794 153.391 25.794 153.05 25.4531 152.567C25.1075 152.08 24.9347 151.523 24.9347 150.898C24.9347 150.756 24.9418 150.598 24.956 150.422C24.9654 150.242 24.982 150.093 25.0057 149.975H27.3707C27.3329 150.084 27.2997 150.257 27.2713 150.493C27.2382 150.725 27.2216 150.95 27.2216 151.168C27.2216 151.637 27.3234 152.058 27.527 152.432C27.7259 152.802 28.0028 153.093 28.358 153.306C28.7131 153.519 29.1226 153.626 29.5866 153.626H36V156.197Z" fill="white"/>
<path d="M29.608 145.696H36V148.267H25.0909V145.809H26.9446V145.682C26.3338 145.431 25.8485 145.031 25.4886 144.481C25.1288 143.927 24.9489 143.243 24.9489 142.429C24.9489 141.676 25.1098 141.02 25.4318 140.461C25.7538 139.898 26.2202 139.462 26.831 139.155C27.4418 138.842 28.1828 138.688 29.054 138.693H36V141.264H29.4517C28.7225 141.264 28.152 141.453 27.7401 141.832C27.3281 142.206 27.1222 142.725 27.1222 143.388C27.1222 143.837 27.2216 144.238 27.4205 144.588C27.6146 144.934 27.8963 145.206 28.2656 145.405C28.6349 145.599 29.0824 145.696 29.608 145.696Z" fill="white"/>
<path d="M36.2202 132.94C36.2202 133.631 36.0971 134.254 35.8509 134.808C35.5999 135.357 35.2306 135.793 34.7429 136.115C34.2552 136.432 33.6539 136.591 32.9389 136.591C32.3234 136.591 31.8144 136.477 31.4119 136.25C31.0095 136.023 30.6875 135.712 30.446 135.319C30.2045 134.926 30.0223 134.484 29.8991 133.991C29.7713 133.494 29.679 132.98 29.6222 132.45C29.5559 131.811 29.4967 131.292 29.4446 130.895C29.3878 130.497 29.3026 130.208 29.1889 130.028C29.0705 129.844 28.8883 129.751 28.642 129.751H28.5994C28.0644 129.751 27.6501 129.91 27.3565 130.227C27.063 130.544 26.9162 131.001 26.9162 131.598C26.9162 132.228 27.0535 132.727 27.3281 133.096C27.6027 133.461 27.9271 133.707 28.3011 133.835L27.9602 136.236C27.2973 136.046 26.7434 135.734 26.2983 135.298C25.8485 134.863 25.5123 134.33 25.2898 133.7C25.0625 133.07 24.9489 132.374 24.9489 131.612C24.9489 131.086 25.0104 130.563 25.1335 130.042C25.2566 129.522 25.4602 129.046 25.7443 128.615C26.0237 128.184 26.4048 127.838 26.8878 127.578C27.3707 127.313 27.9744 127.18 28.6989 127.18H36V129.652H34.5014V129.737C34.8044 129.893 35.0885 130.113 35.3537 130.398C35.6141 130.677 35.8248 131.03 35.9858 131.456C36.142 131.877 36.2202 132.372 36.2202 132.94ZM34.331 132.273C34.331 131.756 34.2292 131.309 34.0256 130.93C33.8172 130.551 33.5426 130.26 33.2017 130.057C32.8608 129.848 32.4891 129.744 32.0866 129.744H30.8011C30.8674 129.825 30.929 129.962 30.9858 130.156C31.0426 130.345 31.0923 130.559 31.1349 130.795C31.1776 131.032 31.2154 131.266 31.2486 131.498C31.2817 131.73 31.3101 131.932 31.3338 132.102C31.3859 132.486 31.4711 132.829 31.5895 133.132C31.7079 133.435 31.8736 133.674 32.0866 133.849C32.295 134.024 32.5649 134.112 32.8963 134.112C33.3698 134.112 33.7273 133.939 33.9688 133.594C34.2102 133.248 34.331 132.808 34.331 132.273Z" fill="white"/>
<path d="M21.4545 122.024H36V124.595H21.4545V122.024Z" fill="white"/>
<path d="M36.1918 110.371C36.1918 111.228 35.9716 111.995 35.5312 112.672C35.0909 113.349 34.4517 113.884 33.6136 114.277C32.7756 114.67 31.7576 114.867 30.5597 114.867C29.3475 114.867 28.3248 114.668 27.4915 114.27C26.6534 113.868 26.0213 113.325 25.5952 112.644C25.1643 111.962 24.9489 111.202 24.9489 110.364C24.9489 109.725 25.0578 109.199 25.2756 108.787C25.4886 108.375 25.7467 108.048 26.0497 107.807C26.348 107.566 26.6297 107.378 26.8949 107.246V107.139H21.4545V104.561H36V107.09H34.2812V107.246C34.5464 107.378 34.8281 107.57 35.1264 107.821C35.42 108.072 35.6709 108.404 35.8793 108.816C36.0876 109.227 36.1918 109.746 36.1918 110.371ZM34.0824 109.654C34.0824 109.109 33.9356 108.645 33.642 108.262C33.3437 107.878 32.9295 107.587 32.3991 107.388C31.8688 107.189 31.2509 107.09 30.5455 107.09C29.84 107.09 29.2268 107.189 28.706 107.388C28.1851 107.582 27.7803 107.871 27.4915 108.254C27.2027 108.633 27.0582 109.1 27.0582 109.654C27.0582 110.227 27.2074 110.705 27.5057 111.088C27.804 111.472 28.2159 111.761 28.7415 111.955C29.267 112.149 29.8684 112.246 30.5455 112.246C31.2273 112.246 31.8357 112.149 32.3707 111.955C32.901 111.756 33.3201 111.465 33.6278 111.081C33.9309 110.693 34.0824 110.217 34.0824 109.654Z" fill="white"/>
<path d="M36.2131 96.992C36.2131 98.0858 35.9858 99.0304 35.5312 99.8258C35.072 100.617 34.4233 101.225 33.5852 101.651C32.7424 102.077 31.7505 102.29 30.6094 102.29C29.4872 102.29 28.5024 102.077 27.6548 101.651C26.8026 101.22 26.1397 100.619 25.6662 99.8471C25.188 99.0753 24.9489 98.1686 24.9489 97.127C24.9489 96.4546 25.0578 95.8201 25.2756 95.2235C25.4886 94.6222 25.8201 94.0919 26.2699 93.6326C26.7197 93.1686 27.2926 92.804 27.9886 92.5389C28.6799 92.2737 29.5038 92.1412 30.4602 92.1412H31.2486V101.083H29.5156V94.6056C29.0232 94.6104 28.5852 94.7169 28.2017 94.9252C27.8134 95.1336 27.508 95.4248 27.2855 95.7988C27.063 96.1681 26.9517 96.599 26.9517 97.0914C26.9517 97.617 27.0795 98.0787 27.3352 98.4764C27.5862 98.8741 27.9176 99.1842 28.3295 99.4068C28.7367 99.6246 29.1842 99.7359 29.6719 99.7406H31.1847C31.8191 99.7406 32.3636 99.6246 32.8182 99.3926C33.268 99.1606 33.6136 98.8362 33.8551 98.4196C34.0919 98.0029 34.2102 97.5152 34.2102 96.9565C34.2102 96.5824 34.1581 96.2439 34.054 95.9409C33.9451 95.6378 33.7865 95.3751 33.5781 95.1525C33.3698 94.93 33.1117 94.7619 32.804 94.6483L33.0739 92.2477C33.7083 92.3992 34.2623 92.688 34.7358 93.1142C35.2045 93.5356 35.5691 94.0753 35.8295 94.7335C36.0852 95.3916 36.2131 96.1445 36.2131 96.992Z" fill="white"/>
<path d="M36 84.8915H21.4545V79.3233C21.4545 78.2722 21.6203 77.3986 21.9517 76.7026C22.2784 76.0018 22.7259 75.4786 23.294 75.133C23.8622 74.7826 24.5062 74.6074 25.2259 74.6074C25.8177 74.6074 26.3243 74.7211 26.7457 74.9483C27.1624 75.1756 27.5009 75.481 27.7614 75.8645C28.0218 76.248 28.2088 76.6765 28.3224 77.15H28.4645C28.4929 76.6339 28.6515 76.1391 28.9403 75.6657C29.2244 75.1874 29.6269 74.7968 30.1477 74.4938C30.6686 74.1908 31.2983 74.0392 32.0369 74.0392C32.7898 74.0392 33.4669 74.2215 34.0682 74.5861C34.6648 74.9507 35.1359 75.4999 35.4815 76.2338C35.8272 76.9677 36 77.891 36 79.0037V84.8915ZM33.7983 82.2566V79.4228C33.7983 78.4663 33.616 77.7774 33.2514 77.356C32.8821 76.9299 32.4086 76.7168 31.831 76.7168C31.4001 76.7168 31.0118 76.8233 30.6662 77.0364C30.3158 77.2495 30.0412 77.5525 29.8423 77.9455C29.6387 78.3385 29.5369 78.8072 29.5369 79.3517V82.2566H33.7983ZM27.6406 82.2566V79.65C27.6406 79.1955 27.5578 78.7859 27.392 78.4213C27.2216 78.0568 26.9825 77.7703 26.6747 77.562C26.3622 77.3489 25.9929 77.2424 25.5668 77.2424C25.0033 77.2424 24.5393 77.4412 24.1747 77.839C23.8101 78.232 23.6278 78.8167 23.6278 79.5932V82.2566H27.6406Z" fill="white"/>
<path d="M36.2131 67.1021C36.2131 68.1674 35.9787 69.0907 35.5099 69.872C35.0412 70.6532 34.3854 71.2593 33.5426 71.6902C32.6998 72.1163 31.715 72.3294 30.5881 72.3294C29.4612 72.3294 28.474 72.1163 27.6264 71.6902C26.7789 71.2593 26.1207 70.6532 25.652 69.872C25.1832 69.0907 24.9489 68.1674 24.9489 67.1021C24.9489 66.0368 25.1832 65.1135 25.652 64.3322C26.1207 63.551 26.7789 62.9473 27.6264 62.5211C28.474 62.0903 29.4612 61.8748 30.5881 61.8748C31.715 61.8748 32.6998 62.0903 33.5426 62.5211C34.3854 62.9473 35.0412 63.551 35.5099 64.3322C35.9787 65.1135 36.2131 66.0368 36.2131 67.1021ZM34.1534 67.0879C34.1534 66.5102 33.9948 66.0273 33.6776 65.639C33.3556 65.2508 32.9247 64.9619 32.3849 64.7726C31.8452 64.5784 31.2438 64.4814 30.581 64.4814C29.9134 64.4814 29.3097 64.5784 28.7699 64.7726C28.2254 64.9619 27.7921 65.2508 27.4702 65.639C27.1482 66.0273 26.9872 66.5102 26.9872 67.0879C26.9872 67.6797 27.1482 68.1722 27.4702 68.5652C27.7921 68.9534 28.2254 69.2446 28.7699 69.4387C29.3097 69.6281 29.9134 69.7228 30.581 69.7228C31.2438 69.7228 31.8452 69.6281 32.3849 69.4387C32.9247 69.2446 33.3556 68.9534 33.6776 68.5652C33.9948 68.1722 34.1534 67.6797 34.1534 67.0879Z" fill="white"/>
<path d="M36 59.6926H25.0909V57.1998H26.9091V57.0861C26.2794 56.8873 25.794 56.5463 25.4531 56.0634C25.1075 55.5757 24.9347 55.0194 24.9347 54.3944C24.9347 54.2523 24.9418 54.0937 24.956 53.9185C24.9654 53.7386 24.982 53.5894 25.0057 53.4711H27.3707C27.3329 53.58 27.2997 53.7528 27.2713 53.9895C27.2382 54.2215 27.2216 54.4464 27.2216 54.6642C27.2216 55.133 27.3234 55.5544 27.527 55.9284C27.7259 56.2978 28.0028 56.589 28.358 56.802C28.7131 57.0151 29.1226 57.1216 29.5866 57.1216H36V59.6926Z" fill="white"/>
<path d="M36.1918 48.1639C36.1918 49.0209 35.9716 49.7879 35.5312 50.465C35.0909 51.1421 34.4517 51.6771 33.6136 52.0701C32.7756 52.4631 31.7576 52.6596 30.5597 52.6596C29.3475 52.6596 28.3248 52.4608 27.4915 52.063C26.6534 51.6606 26.0213 51.1184 25.5952 50.4366C25.1643 49.7548 24.9489 48.9949 24.9489 48.1568C24.9489 47.5176 25.0578 46.992 25.2756 46.5801C25.4886 46.1681 25.7467 45.8414 26.0497 45.6C26.348 45.3585 26.6297 45.1715 26.8949 45.0389V44.9324H21.4545V42.3542H36V44.8826H34.2812V45.0389C34.5464 45.1715 34.8281 45.3632 35.1264 45.6142C35.42 45.8651 35.6709 46.1966 35.8793 46.6085C36.0876 47.0204 36.1918 47.5389 36.1918 48.1639ZM34.0824 47.4466C34.0824 46.902 33.9356 46.438 33.642 46.0545C33.3437 45.671 32.9295 45.3798 32.3991 45.1809C31.8688 44.9821 31.2509 44.8826 30.5455 44.8826C29.84 44.8826 29.2268 44.9821 28.706 45.1809C28.1851 45.3751 27.7803 45.6639 27.4915 46.0474C27.2027 46.4262 27.0582 46.8926 27.0582 47.4466C27.0582 48.0195 27.2074 48.4977 27.5057 48.8812C27.804 49.2647 28.2159 49.5536 28.7415 49.7477C29.267 49.9418 29.8684 50.0389 30.5455 50.0389C31.2273 50.0389 31.8357 49.9418 32.3707 49.7477C32.901 49.5488 33.3201 49.2576 33.6278 48.8741C33.9309 48.4859 34.0824 48.01 34.0824 47.4466Z" fill="white"/>
</svg>
